# Blender v2.79 (sub 0) OBJ File: 'MusicNote.blend'
# www.blender.org
mtllib MusicNote.mtl
o Text_CUText
v -0.110954 -0.089676 -0.017350
v -0.110748 -0.082810 -0.024162
v 0.225166 -0.057389 -0.017350
v 0.217926 -0.057679 -0.024162
v 0.080781 -0.008343 -0.017350
v 0.074204 -0.017395 -0.024162
v 0.168921 -0.163266 -0.017350
v 0.167358 -0.156526 -0.024162
v 0.134373 -0.158236 -0.024162
v 0.133873 -0.165084 -0.017350
v 0.112519 0.001051 -0.017350
v 0.113319 -0.005816 -0.024162
v 0.163482 -0.008617 -0.024162
v 0.165593 -0.001912 -0.017350
v -0.044624 -0.059403 -0.024162
v -0.039173 -0.064063 -0.017350
v -0.178737 -0.066827 -0.017350
v -0.174577 -0.061281 -0.024162
v 0.103073 -0.158915 -0.017350
v 0.105690 -0.152492 -0.024162
v 0.207227 -0.027683 -0.017350
v 0.203112 -0.033147 -0.024162
v 0.041229 -0.064486 -0.024162
v 0.034415 -0.065022 -0.017350
v 0.194485 -0.144936 -0.024162
v 0.198518 -0.150621 -0.017350
v -0.196319 -0.037481 -0.024162
v -0.202348 -0.040981 -0.017350
v 0.222280 -0.092923 -0.024162
v 0.229499 -0.092466 -0.017350
v 0.044112 -0.082171 -0.024162
v 0.039919 -0.098792 -0.017350
v -0.135056 0.077130 -0.017350
v -0.134229 0.070273 -0.024162
v -0.091663 0.068314 -0.024162
v -0.090171 0.075065 -0.017350
v -0.166900 0.067761 -0.017350
v -0.173369 0.058757 -0.024162
v -0.065086 0.057419 -0.024162
v -0.061132 0.063160 -0.017350
v -0.075535 -0.086128 -0.017350
v -0.077750 -0.079504 -0.024162
v -0.140507 -0.078013 -0.024162
v -0.142596 -0.084576 -0.017350
v -0.034688 0.025012 -0.024162
v -0.028394 0.028259 -0.017350
v 0.035807 0.254645 -0.017350
v 0.042640 0.259619 -0.024162
v -0.215145 0.029737 -0.017350
v -0.211961 0.085114 -0.024162
v -0.019469 -0.016023 -0.017350
v -0.026554 -0.015346 -0.024162
v -0.205841 -0.007916 -0.024162
v -0.212583 -0.009203 -0.017350
v -0.183889 0.331694 -0.024162
v -0.176709 0.322260 -0.017350
v -0.212531 0.426293 -0.017350
v -0.209765 0.418261 -0.024162
v 0.065091 0.330636 -0.024162
v 0.071774 0.335655 -0.017350
v 0.219322 -0.127867 -0.017350
v 0.213217 -0.124449 -0.024162
v 0.066794 -0.127228 -0.024162
v 0.054208 -0.127176 -0.017350
v -0.110694 -0.081000 0.025060
v -0.110954 -0.089676 0.016452
v 0.220460 -0.066248 0.025060
v 0.225166 -0.057389 0.016452
v 0.072470 -0.019780 0.025060
v 0.080781 -0.008343 0.016452
v 0.166947 -0.154750 0.025060
v 0.168921 -0.163266 0.016452
v 0.133873 -0.165084 0.016452
v 0.134505 -0.156432 0.025060
v 0.113530 -0.007626 0.025060
v 0.112519 0.001051 0.016452
v 0.165593 -0.001912 0.016452
v 0.162925 -0.010384 0.025060
v -0.039173 -0.064063 0.016452
v -0.046061 -0.058174 0.025060
v -0.173480 -0.059819 0.025060
v -0.178737 -0.066827 0.016452
v 0.106379 -0.150799 0.025060
v 0.103073 -0.158915 0.016452
v 0.200932 -0.033910 0.025060
v 0.207227 -0.027683 0.016452
v 0.034415 -0.065022 0.016452
v 0.039587 -0.058700 0.025060
v 0.198518 -0.150621 0.016452
v 0.206309 -0.135997 0.025060
v -0.202348 -0.040981 0.016452
v -0.199282 -0.031575 0.025060
v 0.229499 -0.092466 0.016452
v 0.222750 -0.084788 0.025060
v 0.039919 -0.098792 0.016452
v 0.044477 -0.088704 0.025060
v -0.134011 0.068466 0.025060
v -0.135056 0.077130 0.016452
v -0.090171 0.075065 0.016452
v -0.092056 0.066535 0.025060
v -0.175075 0.056383 0.025060
v -0.166900 0.067761 0.016452
v -0.061132 0.063160 0.016452
v -0.063807 0.054954 0.025060
v -0.078334 -0.077758 0.025060
v -0.075535 -0.086128 0.016452
v -0.142596 -0.084576 0.016452
v -0.139956 -0.076283 0.025060
v -0.028394 0.028259 0.016452
v -0.036739 0.026097 0.025060
v 0.040983 0.262030 0.025060
v 0.035807 0.254645 0.016452
v -0.206571 0.024575 0.025060
v -0.215145 0.029737 0.016452
v -0.027918 -0.026588 0.025060
v -0.019469 -0.016023 0.016452
v -0.212583 -0.009203 0.016452
v -0.208631 -0.002546 0.025060
v -0.176709 0.322260 0.016452
v -0.185782 0.334180 0.025060
v -0.204084 0.401764 0.025060
v -0.212531 0.426293 0.016452
v 0.071774 0.335655 0.016452
v 0.063668 0.316403 0.025060
v 0.211608 -0.123548 0.025060
v 0.219322 -0.127867 0.016452
v 0.054208 -0.127176 0.016452
v 0.060849 -0.121226 0.025060
vt 0.896735 0.673590
vt 0.896735 0.781698
vt 0.855190 0.781698
vt 0.875386 0.006924
vt 0.833841 0.115032
vt 0.875386 0.115032
vt 0.640541 0.729146
vt 0.598996 0.837254
vt 0.640541 0.837254
vt 0.641695 0.726143
vt 0.683240 0.618035
vt 0.683240 0.726143
vt 0.725939 0.451368
vt 0.725939 0.559476
vt 0.684394 0.559476
vt 0.854036 0.451368
vt 0.812491 0.559476
vt 0.854036 0.559476
vt 0.641695 0.837254
vt 0.683240 0.837254
vt 0.683240 0.729146
vt 0.833841 0.226143
vt 0.875386 0.226143
vt 0.875386 0.118035
vt 0.228984 0.352322
vt 0.073994 0.367845
vt 0.245376 0.397855
vt 0.769792 0.448365
vt 0.811337 0.448365
vt 0.811337 0.340257
vt 0.640156 0.728145
vt 0.598611 0.728145
vt 0.598611 0.836253
vt 0.499760 0.344991
vt 0.496327 0.363663
vt 0.447330 0.270675
vt 0.096280 0.346622
vt 0.131276 0.331924
vt 0.128650 0.479131
vt 0.598996 0.726143
vt 0.640541 0.726143
vt 0.640541 0.618035
vt 0.347769 0.400244
vt 0.316379 0.350968
vt 0.303425 0.680103
vt 0.323067 0.753204
vt 0.811337 0.451368
vt 0.769792 0.559476
vt 0.811337 0.559476
vt 0.768638 0.118035
vt 0.768638 0.226143
vt 0.684394 0.226143
vt 0.203023 0.470025
vt 0.235326 0.438471
vt 0.063013 0.397441
vt 0.854036 0.340257
vt 0.812491 0.448365
vt 0.854036 0.448365
vt 0.727093 0.559476
vt 0.768638 0.451368
vt 0.768638 0.559476
vt 0.171330 0.479682
vt 0.726708 0.558475
vt 0.726708 0.450367
vt 0.768253 0.450367
vt 0.725554 0.450367
vt 0.684009 0.558475
vt 0.684009 0.450367
vt 0.474581 0.395303
vt 0.414517 0.267029
vt 0.057661 0.430264
vt 0.057193 0.402625
vt 0.087712 0.464418
vt 0.768638 0.229146
vt 0.727093 0.448365
vt 0.768638 0.448365
vt 0.384338 0.416741
vt 0.343408 0.401955
vt 0.337686 0.298341
vt 0.811337 0.006924
vt 0.769792 0.115032
vt 0.811337 0.115032
vt 0.683240 0.006924
vt 0.641695 0.226143
vt 0.683240 0.226143
vt 0.811337 0.562479
vt 0.769792 0.670587
vt 0.811337 0.670587
vt 0.052670 0.491624
vt 0.093022 0.466576
vt 0.769408 0.447364
vt 0.810953 0.339256
vt 0.769408 0.339256
vt 0.196244 0.330442
vt 0.132459 0.329170
vt 0.097125 0.344646
vt 0.438026 0.413120
vt 0.386970 0.413737
vt 0.683240 0.506924
vt 0.641695 0.615032
vt 0.683240 0.615032
vt 0.475556 0.276087
vt 0.385734 0.264474
vt 0.493665 0.297720
vt 0.479352 0.389972
vt 0.501468 0.330132
vt 0.495482 0.365722
vt 0.598611 0.725142
vt 0.640156 0.617034
vt 0.598611 0.617034
vt 0.162887 0.325621
vt 0.725939 0.562479
vt 0.684394 0.670587
vt 0.725939 0.670587
vt 0.896351 0.672589
vt 0.854806 0.780697
vt 0.854806 0.672589
vt 0.490773 0.305000
vt 0.486142 0.292055
vt 0.939434 0.006924
vt 0.897889 0.115032
vt 0.939434 0.115032
vt 0.684394 0.115032
vt 0.768638 0.006924
vt 0.768638 0.115032
vt 0.415112 0.259915
vt 0.320091 0.333139
vt 0.345122 0.288398
vt 0.132251 0.480006
vt 0.727093 0.781698
vt 0.768638 0.673590
vt 0.768638 0.781698
vt 0.070226 0.743225
vt 0.040111 0.829971
vt 0.448528 0.263115
vt 0.241969 0.389042
vt 0.229870 0.441965
vt 0.193882 0.334113
vt 0.641310 0.836253
vt 0.682855 0.728145
vt 0.641310 0.728145
vt 0.727093 0.670587
vt 0.768638 0.562479
vt 0.768638 0.670587
vt 0.812491 0.670587
vt 0.854036 0.562479
vt 0.854036 0.670587
vt 0.598996 0.448365
vt 0.683240 0.340257
vt 0.683240 0.448365
vt 0.725939 0.673590
vt 0.684394 0.781698
vt 0.725939 0.781698
vt 0.068414 0.373733
vt 0.939050 0.005923
vt 0.897505 0.005923
vt 0.897505 0.114031
vt 0.725554 0.672589
vt 0.684009 0.672589
vt 0.684009 0.780697
vt 0.060235 0.745611
vt 0.294610 0.685975
vt 0.314372 0.742495
vt 0.833456 0.225142
vt 0.875001 0.117034
vt 0.833456 0.117034
vt 0.769792 0.337254
vt 0.811337 0.229146
vt 0.811337 0.337254
vt 0.434616 0.416898
vt 0.768253 0.117034
vt 0.684009 0.225142
vt 0.684009 0.117034
vt 0.225452 0.355912
vt 0.640541 0.506924
vt 0.598996 0.615032
vt 0.640541 0.615032
vt 0.037625 0.813082
vt 0.769792 0.226143
vt 0.811337 0.226143
vt 0.811337 0.118035
vt 0.768253 0.228145
vt 0.726708 0.228145
vt 0.726708 0.447364
vt 0.810953 0.005923
vt 0.769408 0.005923
vt 0.769408 0.114031
vt 0.175556 0.479907
vt 0.640541 0.006924
vt 0.598996 0.226143
vt 0.640541 0.226143
vt 0.769408 0.225142
vt 0.810953 0.117034
vt 0.769408 0.117034
vt 0.769408 0.336253
vt 0.769408 0.228145
vt 0.810953 0.228145
vt 0.641310 0.892809
vt 0.683240 0.892809
vt 0.683240 0.839256
vt 0.641310 0.839256
vt 0.960784 0.892809
vt 0.960784 0.783700
vt 0.940204 0.783700
vt 0.940204 0.892809
vt 0.769408 1.003921
vt 0.811337 1.003921
vt 0.811337 0.950367
vt 0.769408 0.950367
vt 0.832687 0.226143
vt 0.832687 0.005923
vt 0.812107 0.005923
vt 0.812107 0.226143
vt 0.982134 0.283700
vt 0.961553 0.283700
vt 0.961553 0.337254
vt 0.982134 0.337254
vt 0.726708 1.003921
vt 0.768638 1.003921
vt 0.768638 0.950367
vt 0.726708 0.950367
vt 0.725939 0.448365
vt 0.725939 0.228145
vt 0.684009 0.228145
vt 0.684009 0.448365
vt 0.598611 0.503921
vt 0.683240 0.503921
vt 0.683240 0.450367
vt 0.598611 0.450367
vt 0.960784 0.781698
vt 0.960784 0.672589
vt 0.940204 0.672589
vt 0.940204 0.781698
vt 0.684009 1.003921
vt 0.725939 1.003921
vt 0.725939 0.950367
vt 0.684009 0.950367
vt 0.960784 0.670587
vt 0.960784 0.561478
vt 0.940204 0.561478
vt 0.940204 0.670587
vt 0.982134 0.228145
vt 0.961553 0.228145
vt 0.961553 0.281698
vt 0.982134 0.281698
vt 0.641310 1.003921
vt 0.683240 1.003921
vt 0.683240 0.950367
vt 0.641310 0.950367
vt 0.960784 0.559476
vt 0.960784 0.450367
vt 0.940204 0.450367
vt 0.940204 0.559476
vt 0.982134 0.172589
vt 0.961553 0.172589
vt 0.961553 0.226143
vt 0.982134 0.226143
vt 0.598611 1.003921
vt 0.640541 1.003921
vt 0.640541 0.950367
vt 0.598611 0.950367
vt 0.960784 0.448365
vt 0.960784 0.339256
vt 0.940204 0.339256
vt 0.940204 0.448365
vt 0.769408 0.726143
vt 0.854036 0.726143
vt 0.854036 0.672589
vt 0.769408 0.672589
vt 0.960784 0.337254
vt 0.960784 0.228145
vt 0.940204 0.228145
vt 0.940204 0.337254
vt 0.897505 0.948365
vt 0.939434 0.948365
vt 0.939434 0.894811
vt 0.897505 0.894811
vt 0.960784 0.226143
vt 0.960784 0.117034
vt 0.940204 0.117034
vt 0.940204 0.226143
vt 0.854806 0.948365
vt 0.896735 0.948365
vt 0.896735 0.894811
vt 0.854806 0.894811
vt 0.960784 0.115032
vt 0.960784 0.005923
vt 0.940204 0.005923
vt 0.940204 0.115032
vt 0.812107 0.948365
vt 0.854036 0.948365
vt 0.854036 0.894811
vt 0.812107 0.894811
vt 0.939434 0.837254
vt 0.939434 0.728145
vt 0.918854 0.728145
vt 0.918854 0.837254
vt 0.769408 0.948365
vt 0.811337 0.948365
vt 0.811337 0.894811
vt 0.769408 0.894811
vt 0.939434 0.726143
vt 0.939434 0.617034
vt 0.918854 0.617034
vt 0.918854 0.726143
vt 0.982134 0.117034
vt 0.961553 0.117034
vt 0.961553 0.170587
vt 0.982134 0.170587
vt 0.726708 0.948365
vt 0.768638 0.948365
vt 0.768638 0.894811
vt 0.726708 0.894811
vt 0.875386 0.448365
vt 0.875386 0.228145
vt 0.854806 0.228145
vt 0.854806 0.448365
vt 0.598611 0.337254
vt 0.683240 0.337254
vt 0.683240 0.228145
vt 0.598611 0.228145
vt 0.875386 0.670587
vt 0.875386 0.450367
vt 0.854806 0.450367
vt 0.854806 0.670587
vt 0.161246 0.328889
vt 0.598611 0.447364
vt 0.598611 0.339256
vt 0.682855 0.339256
vt 0.810953 0.450367
vt 0.769408 0.450367
vt 0.769408 0.558475
vt 0.640156 0.505923
vt 0.598611 0.505923
vt 0.598611 0.614031
vt 0.200683 0.469622
vt 0.854036 0.229146
vt 0.854036 0.337254
vt 0.812491 0.337254
vt 0.682855 0.505923
vt 0.641310 0.505923
vt 0.641310 0.614031
vt 0.853652 0.228145
vt 0.812107 0.336253
vt 0.812107 0.228145
vt 0.725554 0.561478
vt 0.684009 0.561478
vt 0.684009 0.669586
vt 0.853652 0.339256
vt 0.812107 0.339256
vt 0.812107 0.447364
vt 0.726708 0.669586
vt 0.726708 0.561478
vt 0.768253 0.561478
vt 0.385646 0.271061
vt 0.319131 0.330356
vt 0.810953 0.561478
vt 0.769408 0.561478
vt 0.769408 0.669586
vt 0.853652 0.450367
vt 0.812107 0.450367
vt 0.812107 0.558475
vt 0.812107 0.669586
vt 0.812107 0.561478
vt 0.853652 0.561478
vt 0.875001 0.005923
vt 0.833456 0.005923
vt 0.833456 0.114031
vt 0.641310 0.725142
vt 0.641310 0.617034
vt 0.682855 0.617034
vt 0.312375 0.360503
vt 0.682855 0.005923
vt 0.641310 0.005923
vt 0.641310 0.225142
vt 0.726708 0.780697
vt 0.726708 0.672589
vt 0.768253 0.672589
vt 0.684009 0.114031
vt 0.684009 0.005923
vt 0.768253 0.005923
vt 0.640156 0.005923
vt 0.598611 0.005923
vt 0.598611 0.225142
vt 0.684009 0.948365
vt 0.725939 0.948365
vt 0.725939 0.894811
vt 0.684009 0.894811
vt 0.939434 0.615032
vt 0.939434 0.505923
vt 0.918854 0.505923
vt 0.918854 0.615032
vt 0.641310 0.948365
vt 0.683240 0.948365
vt 0.683240 0.894811
vt 0.641310 0.894811
vt 0.896735 0.226143
vt 0.896735 0.005923
vt 0.876155 0.005923
vt 0.876155 0.226143
vt 0.960784 0.894811
vt 0.940204 0.894811
vt 0.940204 0.948365
vt 0.960784 0.948365
vt 0.598611 0.948365
vt 0.640541 0.948365
vt 0.640541 0.894811
vt 0.598611 0.894811
vt 0.939434 0.503921
vt 0.939434 0.394811
vt 0.918854 0.394811
vt 0.918854 0.503921
vt 0.684009 0.837254
vt 0.768638 0.837254
vt 0.768638 0.783700
vt 0.684009 0.783700
vt 0.939434 0.392809
vt 0.939434 0.283700
vt 0.918854 0.283700
vt 0.918854 0.392809
vt 0.897505 0.892809
vt 0.939434 0.892809
vt 0.939434 0.839256
vt 0.897505 0.839256
vt 0.918085 0.837254
vt 0.918085 0.728145
vt 0.897505 0.728145
vt 0.897505 0.837254
vt 0.897505 0.281698
vt 0.939434 0.281698
vt 0.939434 0.228145
vt 0.897505 0.228145
vt 0.982134 0.115032
vt 0.982134 0.005923
vt 0.961553 0.005923
vt 0.961553 0.115032
vt 0.854806 0.837254
vt 0.896735 0.837254
vt 0.896735 0.783700
vt 0.854806 0.783700
vt 0.918085 0.226143
vt 0.918085 0.117034
vt 0.897505 0.117034
vt 0.897505 0.226143
vt 0.598611 0.892809
vt 0.640541 0.892809
vt 0.640541 0.839256
vt 0.598611 0.839256
vt 0.982134 0.339256
vt 0.961553 0.339256
vt 0.961553 0.392809
vt 0.982134 0.392809
vt 0.896735 0.670587
vt 0.896735 0.450367
vt 0.876155 0.450367
vt 0.876155 0.670587
vt 0.684009 0.892809
vt 0.725939 0.892809
vt 0.725939 0.839256
vt 0.684009 0.839256
vt 0.918085 0.392809
vt 0.918085 0.283700
vt 0.897505 0.283700
vt 0.897505 0.392809
vt 0.726708 0.892809
vt 0.768638 0.892809
vt 0.768638 0.839256
vt 0.726708 0.839256
vt 0.918085 0.503921
vt 0.918085 0.394811
vt 0.897505 0.394811
vt 0.897505 0.503921
vt 0.769408 0.892809
vt 0.811337 0.892809
vt 0.811337 0.839256
vt 0.769408 0.839256
vt 0.918085 0.615032
vt 0.918085 0.505923
vt 0.897505 0.505923
vt 0.897505 0.615032
vt 0.812107 0.892809
vt 0.854036 0.892809
vt 0.854036 0.839256
vt 0.812107 0.839256
vt 0.918085 0.726143
vt 0.918085 0.617034
vt 0.897505 0.617034
vt 0.897505 0.726143
vt 0.854806 0.892809
vt 0.896735 0.892809
vt 0.896735 0.839256
vt 0.854806 0.839256
vt 0.982134 0.394811
vt 0.961553 0.394811
vt 0.961553 0.448365
vt 0.982134 0.448365
vt 0.939434 0.226143
vt 0.939434 0.117034
vt 0.918854 0.117034
vt 0.918854 0.226143
vt 0.769408 0.837254
vt 0.854036 0.837254
vt 0.854036 0.783700
vt 0.769408 0.783700
vt 0.896735 0.448365
vt 0.896735 0.228145
vt 0.876155 0.228145
vt 0.876155 0.448365
vt 0.769408 0.781698
vt 0.854036 0.781698
vt 0.854036 0.728145
vt 0.769408 0.728145
vn 0.5374 -0.7576 -0.3704
vn 0.5136 -0.7745 0.3692
vn 0.2115 -0.9001 0.3809
vn 0.2096 -0.9044 -0.3717
vn -0.0676 -0.9249 0.3741
vn -0.0676 -0.9249 -0.3741
vn 0.6591 0.6587 -0.3629
vn 0.8790 0.3300 0.3441
vn 0.8804 0.2951 -0.3712
vn -0.3503 -0.8599 0.3712
vn -0.3503 -0.8599 -0.3712
vn 0.4491 0.6250 -0.6384
vn 0.4491 0.6250 0.6384
vn -0.1112 0.9215 0.3721
vn 0.9336 -0.0979 0.3448
vn 0.9235 -0.0685 -0.3774
vn 0.2945 -0.8810 -0.3701
vn 0.2945 -0.8810 0.3701
vn -0.0278 -0.9271 0.3738
vn -0.2814 -0.8842 -0.3729
vn -0.2814 -0.8842 0.3729
vn -0.5571 -0.7428 0.3713
vn 0.3281 -0.2805 -0.9020
vn -0.3630 -0.2107 -0.9077
vn 0.4274 -0.0408 -0.9031
vn -0.8394 -0.2977 -0.4546
vn -0.8837 -0.3092 0.3514
vn -0.9536 -0.0864 0.2882
vn 0.6606 0.6533 0.3698
vn 0.4816 0.0011 0.8764
vn 0.4672 0.1199 0.8759
vn 0.0957 -0.3961 0.9132
vn -0.2495 -0.3327 0.9094
vn -0.1243 -0.3907 0.9121
vn -0.0494 0.4098 0.9108
vn 0.7066 -0.6040 -0.3686
vn 0.7174 -0.6155 0.3263
vn 0.0676 0.0931 -0.9933
vn -0.3976 -0.0313 -0.9170
vn -0.1654 -0.1204 -0.9788
vn 0.3521 0.2644 -0.8978
vn -0.5571 -0.7428 -0.3713
vn -0.7997 -0.4920 0.3440
vn -0.8033 -0.4663 -0.3704
vn 0.7404 0.5561 -0.3774
vn 0.6910 0.5507 0.4682
vn 0.4505 0.6200 0.6424
vn 0.2381 0.3456 -0.9077
vn 0.3799 0.1959 -0.9040
vn -0.3986 -0.0761 -0.9139
vn 0.5269 0.7649 -0.3704
vn 0.8306 0.4178 0.3681
vn 0.8260 0.4260 -0.3690
vn 0.2003 0.9064 -0.3719
vn 0.5222 0.7738 0.3586
vn 0.0892 0.4038 0.9105
vn 0.2003 0.9064 0.3719
vn -0.1112 0.9215 -0.3721
vn 0.3005 0.2972 0.9063
vn -0.0296 -0.4050 0.9138
vn -0.4183 -0.0011 0.9083
vn -0.4945 -0.0549 0.8674
vn 0.0684 0.0951 0.9931
vn -0.9236 -0.0727 -0.3765
vn -0.7685 -0.4774 0.4259
vn -0.6947 -0.5056 -0.5116
vn -0.0479 0.4108 0.9104
vn 0.0676 0.0931 0.9933
vn -0.3173 -0.2842 0.9047
vn 0.9285 -0.0470 0.3682
vn 0.9253 -0.0883 -0.3688
vn 0.4510 -0.5925 -0.6675
vn -0.1074 0.9220 -0.3719
vn 0.2790 0.8863 0.3695
vn 0.2790 0.8863 -0.3695
vn -0.5557 0.0020 -0.8313
vn 0.0684 0.0951 -0.9931
vn 0.1334 -0.3991 -0.9071
vn -0.1243 -0.3907 -0.9121
vn -0.2495 -0.3327 -0.9094
vn 0.1274 0.4046 -0.9055
vn -0.0479 0.4108 -0.9104
vn 0.2427 -0.3422 -0.9077
vn -0.1570 -0.3854 -0.9093
vn 0.3681 -0.2060 -0.9066
vn 0.3126 0.2981 -0.9019
vn 0.4094 -0.0385 -0.9115
vn 0.3948 0.1512 -0.9062
vn -0.0122 -0.4068 -0.9134
vn 0.3887 -0.1930 0.9009
vn 0.3860 -0.3474 0.8545
vn -0.9273 -0.0398 -0.3722
vn -0.5065 0.7210 0.4728
vn -0.5298 0.7678 -0.3602
vn -0.0296 -0.4050 -0.9138
vn -0.3757 -0.0828 -0.9230
vn -0.2542 -0.2945 -0.9212
vn -0.0494 0.4098 -0.9108
vn 0.4505 0.6200 -0.6424
vn -0.1074 0.9220 0.3719
vn 0.0621 -0.0815 -0.9947
vn -0.4142 0.3267 -0.8495
vn 0.0935 -0.4035 -0.9102
vn 0.4776 -0.1473 0.8661
vn 0.3821 0.2119 0.8995
vn 0.1334 -0.3991 0.9071
vn -0.0278 -0.9271 -0.3738
vn -0.9367 -0.1898 0.2941
vn -0.9109 -0.1739 -0.3742
vn 0.8107 -0.4538 -0.3699
vn -0.9354 -0.0156 0.3531
vn -0.4346 -0.2070 0.8765
vn 0.0621 -0.0815 0.9947
vn -0.1816 -0.1510 0.9717
vn 0.3551 0.1148 0.9277
vn -0.6863 -0.5797 -0.4392
vn 0.1274 0.4046 0.9055
vn 0.3500 -0.3069 0.8850
vn -0.6922 -0.6201 0.3692
vn -0.2994 0.1466 0.9428
vn 0.8331 -0.4502 0.3212
vn 0.0892 0.4038 -0.9105
vn 0.4510 -0.5925 0.6675
vn -0.0122 -0.4068 0.9134
vn 0.2595 0.3522 0.8992
vn -0.1570 -0.3854 0.9093
vn -0.4517 -0.1144 0.8848
vn -0.4995 -0.0250 0.8659
usemtl Material.002
s 1
f 26/1/1 89/2/2 72/3/3
f 7/4/4 73/5/5 10/6/6
f 21/7/7 68/8/8 3/9/9
f 10/10/6 84/11/10 19/12/11
f 37/13/12 102/14/13 98/15/14
f 3/16/9 93/17/15 30/18/16
f 41/19/17 106/20/18 66/21/19
f 44/22/20 107/23/21 82/24/22
f 15/25/23 27/26/24 52/27/25
f 32/28/26 95/29/27 87/30/28
f 21/31/7 86/32/29 68/33/8
f 94/34/30 67/35/31 71/36/32
f 81/37/33 108/38/34 97/39/35
f 16/40/36 79/41/37 106/42/18
f 6/43/38 23/44/39 48/45/40
f 6/43/38 48/45/40 59/46/41
f 17/47/42 91/48/43 28/49/44
f 60/50/45 123/51/46 70/52/47
f 39/53/48 45/54/49 53/55/50
f 40/56/51 109/57/52 46/58/53
f 36/59/54 103/60/55 40/61/51
f 100/62/56 97/39/35 108/38/34
f 36/63/54 99/64/57 103/65/55
f 37/66/12 98/67/14 33/68/58
f 71/36/32 85/69/59 74/70/60
f 113/71/61 118/72/62 101/73/63
f 24/74/64 112/75/65 47/76/66
f 75/77/67 69/78/68 128/79/69
f 46/80/53 116/81/70 51/82/71
f 56/83/72 102/84/13 37/85/12
f 11/86/73 77/87/74 14/88/75
f 53/55/50 50/89/76 38/90/77
f 32/91/26 87/92/28 24/93/64
f 42/94/78 43/95/79 18/96/80
f 13/97/81 6/43/38 12/98/82
f 51/99/71 79/100/37 16/101/36
f 25/102/83 20/103/84 62/104/85
f 15/25/23 18/96/80 27/26/24
f 42/94/78 18/96/80 15/25/23
f 22/105/86 23/44/39 6/43/38
f 29/106/87 23/44/39 4/107/88
f 16/108/36 106/109/18 41/110/17
f 42/94/78 2/111/89 43/95/79
f 33/112/58 99/113/57 36/114/54
f 26/115/1 72/116/3 7/117/4
f 125/118/90 94/34/30 90/119/91
f 14/120/75 86/121/29 21/122/7
f 49/123/92 122/124/93 57/125/94
f 25/102/83 9/126/95 20/103/84
f 52/27/25 27/26/24 53/55/50
f 62/104/85 31/127/96 29/106/87
f 52/27/25 53/55/50 45/54/49
f 62/104/85 20/103/84 63/128/97
f 39/53/48 38/90/77 34/129/98
f 5/130/99 76/131/100 11/132/73
f 4/107/88 23/44/39 22/105/86
f 55/133/101 50/89/76 58/134/102
f 29/106/87 31/127/96 23/44/39
f 8/135/103 9/126/95 25/102/83
f 38/90/77 39/53/48 53/55/50
f 22/105/86 6/43/38 13/97/81
f 48/45/40 55/133/101 59/46/41
f 115/136/104 110/137/105 105/138/106
f 41/139/17 66/140/19 1/141/107
f 28/142/44 117/143/108 54/144/109
f 61/145/110 89/146/2 26/147/1
f 57/148/94 123/149/46 60/150/45
f 54/151/109 114/152/111 49/153/92
f 92/154/112 81/37/33 101/73/63
f 14/155/75 77/156/74 86/157/29
f 54/158/109 117/159/108 114/160/111
f 120/161/113 111/162/114 124/163/115
f 44/164/20 82/165/22 17/166/42
f 38/90/77 50/89/76 55/133/101
f 64/167/116 95/168/27 32/169/26
f 118/72/62 92/154/112 101/73/63
f 85/69/59 78/170/117 74/70/60
f 60/171/45 70/172/47 5/173/99
f 105/138/106 80/174/118 115/136/104
f 19/175/11 127/176/119 64/177/116
f 62/104/85 63/128/97 31/127/96
f 120/161/113 124/163/115 121/178/120
f 30/179/16 93/180/15 126/181/121
f 113/71/61 101/73/63 120/161/113
f 24/182/64 87/183/28 112/184/65
f 46/185/53 109/186/52 116/187/70
f 59/46/41 55/133/101 58/134/102
f 39/53/48 34/129/98 35/188/122
f 47/189/66 119/190/123 56/191/72
f 30/192/16 126/193/121 61/194/110
f 64/195/116 127/196/119 95/197/27
f 121/178/120 113/71/61 120/161/113
f 18/198/80 43/199/79 44/200/20 17/201/42
f 42/202/78 15/203/23 16/204/36 41/205/17
f 2/206/89 42/207/78 41/208/17 1/209/107
f 48/210/40 23/211/39 24/212/64 47/213/66
f 20/214/84 9/215/95 10/216/6 19/217/11
f 52/218/25 45/219/49 46/220/53 51/221/71
f 50/222/76 53/223/50 54/224/109 49/225/92
f 38/226/77 55/227/101 56/228/72 37/229/12
f 22/230/86 13/231/81 14/232/75 21/233/7
f 45/234/49 39/235/48 40/236/51 46/237/53
f 4/238/88 22/239/86 21/240/7 3/241/9
f 39/242/48 35/243/122 36/244/54 40/245/51
f 62/246/85 29/247/87 30/248/16 61/249/110
f 43/250/79 2/251/89 1/252/107 44/253/20
f 23/254/39 31/255/96 32/256/26 24/257/64
f 8/258/103 25/259/83 26/260/1 7/261/4
f 29/262/87 4/263/88 3/264/9 30/265/16
f 60/266/45 5/267/99 6/268/38 59/269/41
f 15/270/23 52/271/25 51/272/71 16/273/36
f 12/274/82 6/275/38 5/276/99 11/277/73
f 9/278/95 8/279/103 7/280/4 10/281/6
f 53/282/50 27/283/24 28/284/44 54/285/109
f 27/286/24 18/287/80 17/288/42 28/289/44
f 13/290/81 12/291/82 11/292/73 14/293/75
f 31/294/96 63/295/97 64/296/116 32/297/26
f 63/298/97 20/299/84 19/300/11 64/301/116
f 34/302/98 38/303/77 37/304/12 33/305/58
f 25/306/83 62/307/85 61/308/110 26/309/1
f 35/310/122 34/311/98 33/312/58 36/313/54
f 55/314/101 48/315/40 47/316/66 56/317/72
f 58/318/102 50/319/76 49/320/92 57/321/94
f 59/322/41 58/323/102 57/324/94 60/325/45
f 108/38/34 65/326/124 100/62/56
f 57/327/94 122/328/93 123/329/46
f 101/73/63 81/37/33 97/39/35
f 17/330/42 82/331/22 91/332/43
f 19/333/11 84/334/10 127/335/119
f 104/336/125 65/326/124 110/137/105
f 1/337/107 66/338/19 107/339/21
f 104/336/125 100/62/56 65/326/124
f 51/340/71 116/341/70 79/342/37
f 1/343/107 107/344/21 44/345/20
f 67/35/31 85/69/59 71/36/32
f 33/346/58 98/347/14 99/348/57
f 40/349/51 103/350/55 109/351/52
f 28/352/44 91/353/43 117/354/108
f 83/355/126 75/77/67 128/79/69
f 96/356/127 128/79/69 69/78/68
f 11/357/73 76/358/100 77/359/74
f 3/360/9 68/361/8 93/362/15
f 78/170/117 75/77/67 83/355/126
f 83/355/126 74/70/60 78/170/117
f 61/363/110 126/364/121 89/365/2
f 111/162/114 69/78/68 124/163/115
f 7/366/4 72/367/3 73/368/5
f 10/369/6 73/370/5 84/371/10
f 111/162/114 88/372/128 69/78/68
f 88/372/128 96/356/127 69/78/68
f 71/36/32 90/119/91 94/34/30
f 56/373/72 119/374/123 102/375/13
f 5/376/99 70/377/47 76/378/100
f 49/379/92 114/380/111 122/381/93
f 47/382/66 112/383/65 119/384/123
f 82/385/22 107/386/21 108/387/34 81/388/33
f 106/389/18 79/390/37 80/391/118 105/392/106
f 66/393/19 106/394/18 105/395/106 65/396/124
f 112/397/65 87/398/28 88/399/128 111/400/114
f 84/401/10 73/402/5 74/403/60 83/404/126
f 116/405/70 109/406/52 110/407/105 115/408/104
f 114/409/111 117/410/108 118/411/62 113/412/61
f 102/413/13 119/414/123 120/415/113 101/416/63
f 86/417/29 77/418/74 78/419/117 85/420/59
f 109/421/52 103/422/55 104/423/125 110/424/105
f 68/425/8 86/426/29 85/427/59 67/428/31
f 103/429/55 99/430/57 100/431/56 104/432/125
f 126/433/121 93/434/15 94/435/30 125/436/90
f 107/437/21 66/438/19 65/439/124 108/440/34
f 87/441/28 95/442/27 96/443/127 88/444/128
f 72/445/3 89/446/2 90/447/91 71/448/32
f 93/449/15 68/450/8 67/451/31 94/452/30
f 124/453/115 69/454/68 70/455/47 123/456/46
f 79/457/37 116/458/70 115/459/104 80/460/118
f 76/461/100 70/462/47 69/463/68 75/464/67
f 73/465/5 72/466/3 71/467/32 74/468/60
f 117/469/108 91/470/43 92/471/112 118/472/62
f 91/473/43 82/474/22 81/475/33 92/476/112
f 77/477/74 76/478/100 75/479/67 78/480/117
f 95/481/27 127/482/119 128/483/69 96/484/127
f 127/485/119 84/486/10 83/487/126 128/488/69
f 98/489/14 102/490/13 101/491/63 97/492/35
f 89/493/2 126/494/121 125/495/90 90/496/91
f 99/497/57 98/498/14 97/499/35 100/500/56
f 119/501/123 112/502/65 111/503/114 120/504/113
f 122/505/93 114/506/111 113/507/61 121/508/120
f 123/509/46 122/510/93 121/511/120 124/512/115
f 65/326/124 105/138/106 110/137/105
